<?xml version="1.0" standalone="no"?>
<!DOCTYPE svg PUBLIC "-//W3C//DTD SVG 20010904//EN"
 "http://www.w3.org/TR/2001/REC-SVG-20010904/DTD/svg10.dtd">
<svg version="1.0" xmlns="http://www.w3.org/2000/svg"
 width="900.000000pt" height="969.000000pt" viewBox="0 0 900.000000 969.000000"
 preserveAspectRatio="xMidYMid meet">

<g transform="translate(0.000000,969.000000) scale(0.100000,-0.100000)"
fill="#000000" stroke="none">
<path d="M6601 8564 c-57 -53 -69 -69 -60 -80 9 -11 8 -18 -1 -29 -10 -12 -10
-18 0 -31 12 -13 15 -13 28 0 13 12 13 18 2 31 -11 13 -6 21 31 54 38 34 46
37 60 25 22 -19 42 1 26 26 -8 14 -8 22 1 33 10 11 9 17 -2 26 -12 10 -28 0
-85 -55z"/>
<path d="M6657 8442 c-53 -54 -65 -71 -55 -79 10 -8 24 -1 58 28 30 26 48 35
56 28 12 -10 44 -2 44 10 0 4 -5 12 -12 19 -8 8 -8 15 1 26 14 16 7 36 -12 36
-7 0 -43 -31 -80 -68z"/>
<path d="M6774 8439 c-10 -17 13 -36 27 -22 12 12 4 33 -11 33 -5 0 -12 -5
-16 -11z"/>
<path d="M6782 8337 c-40 -40 -49 -56 -41 -64 9 -9 9 -16 -1 -28 -12 -14 -8
-22 28 -57 l41 -41 59 51 c82 72 87 78 72 98 -12 13 -20 8 -70 -41 l-56 -55
-28 29 -28 30 57 54 c36 33 56 58 51 65 -13 21 -31 13 -84 -41z"/>
<path d="M6922 8167 c-32 -33 -39 -46 -30 -55 8 -8 8 -15 -2 -27 -12 -14 -8
-22 27 -57 23 -22 46 -37 52 -34 18 11 13 24 -25 66 -32 35 -38 60 -14 60 5 0
27 -19 49 -42 l39 -43 26 24 c29 27 30 30 17 50 -8 12 -12 13 -26 1 -14 -12
-20 -10 -42 13 -23 22 -24 28 -13 42 11 13 11 18 -1 31 -13 12 -20 9 -57 -29z"/>
<path d="M7004 8189 c-3 -6 5 -23 20 -37 20 -20 28 -24 38 -14 9 9 6 17 -12
37 -26 28 -35 31 -46 14z"/>
<path d="M2400 7958 c-41 -16 -79 -33 -84 -38 -8 -8 8 -64 24 -83 3 -4 26 -1
50 8 24 8 44 14 45 13 2 -2 40 -100 85 -219 45 -119 86 -222 90 -229 6 -10 17
-9 53 5 l45 17 -49 126 c-27 70 -75 196 -107 279 -31 84 -61 152 -67 152 -5
-1 -44 -14 -85 -31z"/>
<path d="M4318 6941 c-31 -45 -35 -39 70 -111 34 -24 62 -45 62 -48 0 -2 -48
-72 -107 -155 -60 -83 -111 -155 -115 -160 -3 -6 -37 13 -78 42 -39 29 -77 54
-83 56 -7 3 -24 -13 -40 -34 l-27 -39 81 -58 82 -57 19 23 c10 13 23 30 28 39
9 17 12 16 76 -25 19 -13 26 -5 134 148 l114 161 -39 33 -39 32 28 37 c16 20
24 40 20 45 -16 14 -152 110 -155 110 -2 -1 -16 -18 -31 -39z"/>
<path d="M4092 6793 l-112 -158 32 -28 c18 -15 38 -26 45 -25 7 2 62 73 122
158 l110 155 -31 28 c-18 15 -37 27 -43 27 -6 0 -62 -71 -123 -157z"/>
<path d="M5433 5618 c-54 -106 -99 -198 -101 -205 -2 -7 37 -32 90 -59 51 -25
95 -48 97 -50 3 -3 -17 -50 -45 -106 -27 -55 -44 -103 -39 -105 6 -2 97 -49
202 -104 l193 -100 -100 -199 c-55 -110 -105 -200 -111 -200 -6 0 -98 45 -205
101 l-194 100 51 101 c28 55 49 101 47 103 -8 7 -189 95 -195 95 -10 0 -103
-172 -103 -189 0 -6 43 -32 95 -58 52 -26 95 -51 95 -55 0 -5 -20 -49 -45 -98
-25 -49 -45 -94 -45 -100 0 -9 399 -215 405 -208 1 2 24 46 50 98 26 52 49 96
50 98 2 2 48 -19 103 -47 l101 -50 100 194 c56 107 101 199 101 205 0 6 -43
31 -95 57 -52 26 -95 51 -95 55 0 5 20 49 45 98 25 49 45 94 45 100 0 5 -90
55 -200 110 l-200 100 50 100 c28 55 53 100 57 100 3 0 138 -67 299 -150 161
-82 298 -150 303 -150 6 0 33 45 60 99 l50 99 -405 206 c-222 113 -406 206
-409 206 -2 0 -48 -87 -102 -192z"/>
<path d="M2620 4578 c-58 -22 -106 -42 -108 -43 -1 -1 7 -27 19 -58 l21 -55
54 20 c30 12 56 19 58 17 2 -2 61 -152 130 -333 123 -321 130 -345 95 -346 -4
0 -23 -7 -43 -15 l-36 -15 20 -51 c10 -28 21 -53 23 -55 2 -2 54 15 115 37
l111 42 -13 31 c-7 17 -84 219 -172 448 -87 230 -161 418 -164 417 -3 0 -52
-18 -110 -41z"/>
<path d="M1960 4328 c-58 -22 -106 -42 -108 -43 -3 -2 334 -885 341 -891 2 -2
54 15 115 37 l111 42 -21 51 c-11 28 -22 53 -24 55 -2 3 -27 -3 -55 -13 -28
-11 -54 -15 -58 -10 -9 10 -251 641 -251 654 0 4 23 16 50 26 28 10 50 23 50
28 0 17 -33 106 -39 105 -4 0 -53 -18 -111 -41z"/>
<path d="M5880 1910 c-96 -38 -174 -72 -172 -77 1 -4 8 -25 14 -45 6 -21 15
-38 19 -38 12 0 353 132 362 140 11 10 -22 90 -37 89 -6 -1 -90 -32 -186 -69z"/>
<path d="M5970 1729 c-96 -38 -179 -70 -185 -72 -9 -3 12 -84 24 -92 4 -2 47
12 96 31 50 19 132 51 183 70 50 20 92 41 91 47 0 7 -8 28 -17 48 l-17 36
-175 -68z"/>
</g>
</svg>
