<?xml version="1.0" standalone="no"?>
<!DOCTYPE svg PUBLIC "-//W3C//DTD SVG 20010904//EN"
 "http://www.w3.org/TR/2001/REC-SVG-20010904/DTD/svg10.dtd">
<svg version="1.0" xmlns="http://www.w3.org/2000/svg"
 width="900.000000pt" height="324.000000pt" viewBox="0 0 900.000000 324.000000"
 preserveAspectRatio="xMidYMid meet">

<g transform="translate(0.000000,324.000000) scale(0.100000,-0.100000)"
fill="#000000" stroke="none">
<path d="M3520 2710 l0 -120 40 0 40 0 0 -40 0 -40 40 0 40 0 0 -80 0 -80 40
0 40 0 0 80 0 80 40 0 40 0 0 40 0 40 40 0 40 0 0 120 0 120 -40 0 -40 0 0
-120 0 -120 -120 0 -120 0 0 120 0 120 -40 0 -40 0 0 -120z"/>
<path d="M4120 2790 l0 -40 -40 0 -40 0 0 -160 0 -160 40 0 40 0 0 -40 0 -40
120 0 120 0 0 40 0 40 40 0 40 0 0 160 0 160 -40 0 -40 0 0 40 0 40 -120 0
-120 0 0 -40z m240 -200 l0 -160 -120 0 -120 0 0 160 0 160 120 0 120 0 0
-160z"/>
<path d="M4550 2630 l0 -200 40 0 40 0 0 -40 0 -40 160 0 160 0 0 240 0 240
-40 0 -40 0 0 -200 0 -200 -120 0 -120 0 0 200 0 200 -40 0 -40 0 0 -200z"/>
<path d="M5070 2590 l0 -240 40 0 40 0 0 80 0 80 120 0 120 0 0 -80 0 -80 40
0 40 0 0 80 0 80 -40 0 -40 0 0 40 0 40 40 0 40 0 0 80 0 80 -40 0 -40 0 0 40
0 40 -160 0 -160 0 0 -240z m320 80 l0 -80 -120 0 -120 0 0 80 0 80 120 0 120
0 0 -80z"/>
<path d="M4010 1990 l0 -150 25 0 25 0 0 150 0 150 -25 0 -25 0 0 -150z"/>
<path d="M4940 1990 l0 -150 25 0 25 0 0 150 0 150 -25 0 -25 0 0 -150z"/>
<path d="M4180 2065 c0 -20 -5 -25 -25 -25 -24 0 -25 -2 -25 -75 0 -73 1 -75
25 -75 20 0 25 -5 25 -25 0 -23 3 -25 50 -25 47 0 50 2 50 25 0 20 5 25 25 25
24 0 25 2 25 75 0 73 -1 75 -25 75 -20 0 -25 5 -25 25 0 23 -3 25 -50 25 -47
0 -50 -2 -50 -25z m100 -100 l0 -75 -50 0 -50 0 0 75 0 75 50 0 50 0 0 -75z"/>
<path d="M4440 2065 c0 -20 -5 -25 -25 -25 -24 0 -25 -2 -25 -75 0 -73 1 -75
25 -75 20 0 25 -5 25 -25 0 -24 2 -25 75 -25 73 0 75 1 75 25 0 24 -2 25 -75
25 l-75 0 0 75 0 75 50 0 c47 0 50 -2 50 -25 0 -20 5 -25 25 -25 20 0 25 5 25
25 0 20 -5 25 -25 25 -20 0 -25 5 -25 25 0 23 -3 25 -50 25 -47 0 -50 -2 -50
-25z"/>
<path d="M4710 2065 c0 -20 -5 -25 -25 -25 -24 0 -25 -2 -25 -75 0 -73 1 -75
25 -75 20 0 25 -5 25 -25 0 -24 2 -25 75 -25 l75 0 0 125 0 125 -75 0 c-73 0
-75 -1 -75 -25z m100 -100 l0 -75 -50 0 -50 0 0 75 0 75 50 0 50 0 0 -75z"/>
<path d="M820 960 l0 -300 200 0 200 0 0 50 0 50 -150 0 -150 0 0 250 0 250
-50 0 -50 0 0 -300z"/>
<path d="M1400 1210 l0 -50 -50 0 -50 0 0 -200 0 -200 50 0 50 0 0 -50 0 -50
150 0 150 0 0 50 0 50 50 0 50 0 0 200 0 200 -50 0 -50 0 0 50 0 50 -150 0
-150 0 0 -50z m300 -250 l0 -200 -150 0 -150 0 0 200 0 200 150 0 150 0 0
-200z"/>
<path d="M2040 1210 l0 -50 -50 0 -50 0 0 -200 0 -200 50 0 50 0 0 -50 0 -50
200 0 200 0 0 50 0 50 -200 0 -200 0 0 200 0 200 150 0 150 0 0 -50 0 -50 50
0 50 0 0 50 0 50 -50 0 -50 0 0 50 0 50 -150 0 -150 0 0 -50z"/>
<path d="M2670 1210 l0 -50 -50 0 -50 0 0 -250 0 -250 50 0 50 0 0 100 0 100
150 0 150 0 0 -100 0 -100 50 0 50 0 0 250 0 250 -50 0 -50 0 0 50 0 50 -150
0 -150 0 0 -50z m300 -150 l0 -100 -150 0 -150 0 0 100 0 100 150 0 150 0 0
-100z"/>
<path d="M3220 960 l0 -300 200 0 200 0 0 50 0 50 -150 0 -150 0 0 250 0 250
-50 0 -50 0 0 -300z"/>
<path d="M4080 1210 l0 -50 -50 0 -50 0 0 -50 0 -50 50 0 50 0 0 -50 0 -50 50
0 50 0 0 -50 0 -50 100 0 100 0 0 -50 0 -50 -150 0 -150 0 0 50 0 50 -50 0
-50 0 0 -50 0 -50 50 0 50 0 0 -50 0 -50 150 0 150 0 0 50 0 50 50 0 50 0 0
50 0 50 -50 0 -50 0 0 50 0 50 -100 0 -100 0 0 50 0 50 -50 0 -50 0 0 50 0 50
150 0 150 0 0 -50 0 -50 50 0 50 0 0 50 0 50 -50 0 -50 0 0 50 0 50 -150 0
-150 0 0 -50z"/>
<path d="M4620 1210 l0 -50 100 0 100 0 0 -250 0 -250 50 0 50 0 0 250 0 250
100 0 100 0 0 50 0 50 -250 0 -250 0 0 -50z"/>
<path d="M5310 1210 l0 -50 -50 0 -50 0 0 -200 0 -200 50 0 50 0 0 -50 0 -50
150 0 150 0 0 50 0 50 50 0 50 0 0 200 0 200 -50 0 -50 0 0 50 0 50 -150 0
-150 0 0 -50z m300 -250 l0 -200 -150 0 -150 0 0 200 0 200 150 0 150 0 0
-200z"/>
<path d="M5860 960 l0 -300 50 0 50 0 0 100 0 100 150 0 150 0 0 -100 0 -100
50 0 50 0 0 100 0 100 -50 0 -50 0 0 50 0 50 50 0 50 0 0 100 0 100 -50 0 -50
0 0 50 0 50 -200 0 -200 0 0 -300z m400 100 l0 -100 -150 0 -150 0 0 100 0
100 150 0 150 0 0 -100z"/>
<path d="M6600 1210 l0 -50 -50 0 -50 0 0 -250 0 -250 50 0 50 0 0 100 0 100
150 0 150 0 0 -100 0 -100 50 0 50 0 0 250 0 250 -50 0 -50 0 0 50 0 50 -150
0 -150 0 0 -50z m300 -150 l0 -100 -150 0 -150 0 0 100 0 100 150 0 150 0 0
-100z"/>
<path d="M7250 1210 l0 -50 -50 0 -50 0 0 -200 0 -200 50 0 50 0 0 -50 0 -50
150 0 150 0 0 50 0 50 50 0 50 0 0 50 0 50 -50 0 -50 0 0 50 0 50 -50 0 -50 0
0 -50 0 -50 50 0 50 0 0 -50 0 -50 -150 0 -150 0 0 200 0 200 150 0 150 0 0
-50 0 -50 50 0 50 0 0 50 0 50 -50 0 -50 0 0 50 0 50 -150 0 -150 0 0 -50z"/>
<path d="M7790 960 l0 -300 200 0 200 0 0 50 0 50 -150 0 -150 0 0 50 0 50
150 0 150 0 0 50 0 50 -150 0 -150 0 0 100 0 100 150 0 150 0 0 50 0 50 -200
0 -200 0 0 -300z"/>
</g>
</svg>
