<?xml version="1.0" standalone="no"?>
<!DOCTYPE svg PUBLIC "-//W3C//DTD SVG 20010904//EN"
 "http://www.w3.org/TR/2001/REC-SVG-20010904/DTD/svg10.dtd">
<svg version="1.0" xmlns="http://www.w3.org/2000/svg"
 width="1600.000000pt" height="968.000000pt" viewBox="0 0 1600.000000 968.000000"
 preserveAspectRatio="xMidYMid meet">

<g transform="translate(0.000000,968.000000) scale(0.100000,-0.100000)"
fill="#000000" stroke="none">
<path d="M13261 8369 c-55 -22 -68 -83 -26 -124 40 -40 110 -25 128 28 6 16
43 17 590 17 507 0 586 -2 597 -15 7 -8 22 -15 34 -15 15 0 182 -161 549 -528
290 -290 527 -530 527 -534 0 -3 -353 -7 -785 -7 -695 -1 -786 0 -791 14 -4 9
-19 15 -41 15 -33 0 -34 -1 -31 -37 3 -36 5 -38 33 -34 17 1 33 7 36 12 3 5
401 9 963 9 757 0 957 3 953 13 -3 9 -40 11 -147 9 l-143 -3 -543 542 c-397
397 -544 549 -548 570 -4 23 -11 29 -30 29 -14 0 -28 -4 -31 -10 -4 -6 -215
-10 -601 -10 -491 0 -594 2 -594 13 0 34 -60 61 -99 46z m69 -34 c7 -9 9 -19
5 -23 -4 -4 -10 -1 -12 6 -8 21 -61 15 -68 -8 -13 -42 32 -65 67 -33 10 9 18
12 18 7 -1 -30 -48 -51 -79 -35 -48 26 -27 101 28 101 16 0 34 -7 41 -15z"/>
<path d="M12149 7668 c0 -13 -2 -31 -4 -40 -3 -15 4 -18 36 -18 28 0 39 4 39
15 0 13 34 15 243 15 l242 0 948 -948 c521 -521 947 -950 947 -955 0 -4 -310
-7 -689 -7 l-689 0 -313 315 -313 315 -495 0 -495 0 -25 31 c-21 25 -34 31
-66 31 -71 0 -101 -77 -50 -127 36 -37 78 -33 112 10 l28 35 487 0 487 0 301
-299 c165 -164 300 -301 300 -305 0 -3 -204 -6 -454 -6 -397 0 -455 2 -466 15
-26 31 -81 -1 -67 -39 7 -18 67 -23 67 -6 0 7 395 10 1165 10 1061 0 1168 -1
1191 -16 23 -15 26 -15 43 0 16 14 81 16 679 16 435 0 662 3 662 10 0 7 -227
10 -661 10 -574 0 -662 2 -675 15 -9 8 -23 15 -32 15 -9 0 -445 428 -967 950
l-950 950 -246 0 c-210 0 -248 2 -253 15 -3 9 -18 15 -36 15 -24 0 -30 -4 -31
-22z m-598 -1277 c13 -11 21 -23 17 -27 -5 -4 -17 1 -27 10 -36 33 -83 -18
-49 -52 17 -17 45 -15 57 5 5 10 13 14 18 10 9 -10 -33 -47 -53 -47 -20 0 -54
37 -54 59 0 18 43 61 60 61 4 0 18 -9 31 -19z"/>
<path d="M9840 5100 c0 -39 1 -40 34 -40 21 0 36 6 40 15 5 13 83 15 625 15
l619 0 521 -520 521 -520 -1505 0 c-997 0 -1505 3 -1505 10 0 23 -41 50 -75
50 -69 0 -102 -81 -52 -128 36 -34 80 -29 114 13 l29 35 1664 -2 1664 -3 -769
-767 -769 -768 -599 0 c-518 0 -600 2 -613 15 -29 29 -80 -19 -54 -50 16 -19
44 -19 60 0 11 13 92 15 616 15 l603 0 782 780 781 780 1714 0 c1136 0 1714 3
1714 10 0 7 -634 10 -1883 10 l-1882 0 -530 530 -530 530 -632 0 c-556 0 -633
2 -633 15 0 10 -11 15 -35 15 -34 0 -35 -1 -35 -40z m-685 -1030 c19 -20 8
-29 -12 -9 -6 6 -21 9 -34 7 -19 -2 -24 -9 -24 -33 0 -24 5 -31 24 -33 15 -2
30 3 37 13 7 9 15 12 18 6 7 -11 -31 -41 -53 -41 -23 0 -51 31 -51 56 0 50 61
72 95 34z"/>
<path d="M14260 4915 l-215 -215 -342 0 c-281 0 -343 2 -343 13 0 41 -92 64
-124 31 -25 -24 -31 -64 -15 -93 30 -53 111 -52 137 1 l13 27 1312 0 c901 0
1313 3 1315 11 3 7 -296 10 -960 10 l-963 0 205 205 205 205 757 0 c417 0 758
4 758 8 0 5 -343 9 -763 10 l-762 2 -215 -215z m-929 -191 c18 -22 2 -30 -19
-10 -22 19 -49 12 -57 -15 -13 -40 38 -66 65 -34 7 9 15 13 18 10 9 -9 -30
-45 -50 -45 -22 0 -58 34 -58 55 0 9 11 27 24 40 25 25 55 25 77 -1z"/>
<path d="M14142 3418 c-5 -7 -11 -21 -13 -31 -2 -10 -152 -166 -333 -347 -279
-278 -332 -327 -348 -319 -70 38 -135 -80 -72 -130 36 -28 70 -26 101 5 21 21
25 32 20 64 l-5 38 328 328 c181 180 336 329 346 330 9 1 21 7 27 13 8 8 285
11 909 11 592 0 898 3 898 10 0 7 -305 10 -894 10 -782 0 -895 2 -906 15 -15
18 -44 19 -58 3z m-697 -728 c-3 -5 -15 -10 -25 -10 -25 0 -41 -30 -29 -53 19
-32 69 -14 69 25 0 10 5 18 10 18 17 0 11 -39 -10 -60 -24 -24 -38 -25 -68 -4
-24 17 -30 62 -10 82 15 15 72 16 63 2z"/>
<path d="M14543 2899 c-31 -11 -46 -46 -39 -88 l6 -36 -553 -552 c-407 -408
-558 -553 -575 -553 -12 0 -25 -7 -28 -15 -5 -13 -40 -15 -225 -15 -139 0
-219 4 -219 10 0 6 -11 10 -24 10 -14 0 -28 -4 -31 -10 -4 -6 -195 -10 -540
-10 -474 0 -534 2 -539 16 -4 10 -16 14 -38 12 -30 -3 -33 -6 -36 -40 -3 -37
-2 -38 31 -38 22 0 37 6 41 15 5 13 74 15 536 15 291 0 530 -3 530 -8 0 -4
-159 -166 -353 -360 l-352 -352 -404 0 c-356 0 -407 2 -422 16 -34 31 -80 -9
-57 -50 11 -20 42 -21 58 -1 11 13 70 15 425 15 l412 0 354 355 c241 241 361
355 375 355 12 0 27 7 34 15 10 12 47 15 215 15 174 0 208 -2 233 -17 29 -17
31 -17 50 0 17 16 101 17 1305 17 851 0 1287 3 1287 10 0 7 -437 10 -1290 10
-709 0 -1290 3 -1290 8 0 4 249 256 553 560 l554 554 37 -7 c33 -7 40 -4 71
29 l34 36 665 0 c437 0 666 3 666 10 0 7 -232 10 -675 10 -559 0 -675 2 -675
13 0 36 -63 63 -107 46z m68 -28 c13 -11 21 -23 17 -27 -5 -4 -17 1 -27 10
-26 24 -61 6 -61 -31 0 -20 -3 -24 -11 -16 -17 17 -2 62 24 73 31 12 32 12 58
-9z m19 -61 c0 -17 -49 -43 -67 -35 -15 6 -12 9 15 17 17 5 32 13 32 18 0 6 5
10 10 10 6 0 10 -4 10 -10z"/>
<path d="M15170 963 c-38 -14 -51 -37 -49 -84 l2 -46 -416 -417 c-249 -248
-410 -416 -400 -416 10 0 196 178 428 410 408 408 410 410 445 404 27 -4 42
-1 63 16 15 12 27 28 27 36 0 12 55 14 365 14 237 0 365 4 365 10 0 6 -128 10
-365 10 -299 0 -365 2 -365 13 0 31 -65 63 -100 50z m71 -39 c19 -23 1 -29
-22 -9 -24 23 -52 11 -57 -24 -4 -26 -22 -28 -22 -3 0 52 68 76 101 36z m-1
-64 c-8 -14 -20 -20 -43 -19 -22 1 -25 3 -10 6 12 2 27 11 33 19 18 21 32 17
20 -6z"/>
<path d="M12047 383 c-18 -5 -47 -52 -47 -77 0 -8 11 -27 23 -42 34 -39 82
-38 117 4 l26 32 350 0 349 0 150 -150 c82 -82 157 -150 165 -150 8 0 -57 72
-145 160 l-160 160 -357 0 c-242 0 -358 3 -358 10 0 6 -11 22 -25 35 -23 24
-47 29 -88 18z m64 -23 c10 -6 19 -18 19 -27 0 -14 -2 -14 -19 1 -23 21 -49
18 -64 -6 -22 -34 41 -66 71 -36 8 8 12 8 12 1 0 -19 -28 -35 -57 -31 -35 4
-57 42 -41 72 19 37 43 44 79 26z"/>
</g>
</svg>
